# xmcd CD database file
#
# Track frame offsets:
#	150
#	14856
#	33733
#	47673
#	61511
#	76676
#	98537
#	113748
#	129293
#	149155
#	166676
#	181247
#	195083
#
# Disc length: 2915 seconds
#
# Revision: 0
# Processed by: cddbd v1.5.1PL0 Copyright (c) Steve Scherf et al.
# Submitted via: CDex 1.51
#
DISCID=9c0b610d
DTITLE=Юрий Михайлов - Не для FM
DYEAR=2005
DGENRE=Blues
TTITLE0=01 Запой
TTITLE1=02 Беги малышка домой
TTITLE2=03 Послушай детка гитару
TTITLE3=04 Моя страна спортивный край
TTITLE4=05 Спасибо Родина
TTITLE5=06 Патологоанатом
TTITLE6=07 TV
TTITLE7=08 Не грусти малышка
TTITLE8=09 0_7 Вина
TTITLE9=10 Серая моль
TTITLE10=11 Я выпью водки
TTITLE11=12 Дворник
TTITLE12=13 Тоска
EXTD=YEAR: 2005
EXTT0=
EXTT1=
EXTT2=
EXTT3=
EXTT4=
EXTT5=
EXTT6=
EXTT7=
EXTT8=
EXTT9=
EXTT10=
EXTT11=
EXTT12=
PLAYORDER=
